<?xml version="1.0" encoding="utf-8"?>
<!-- Generator: Adobe Illustrator 27.2.0, SVG Export Plug-In . SVG Version: 6.00 Build 0)  -->
<svg version="1.1" id="Layer_1" xmlns="http://www.w3.org/2000/svg" xmlns:xlink="http://www.w3.org/1999/xlink" x="0px" y="0px"
	 viewBox="0 0 2500 2500" style="enable-background:new 0 0 2500 2500;" xml:space="preserve">
<style type="text/css">
	.st0{fill:url(#SVGID_1_);}
	.st1{fill:url(#SVGID_00000130634162313300581580000017676318852585099137_);}
	.st2{fill:#FFFFFF;}
</style>
<linearGradient id="SVGID_1_" gradientUnits="userSpaceOnUse" x1="-1567.5405" y1="431.3033" x2="-1504.8577" y2="786.7939" gradientTransform="matrix(-9.7656 0 0 9.7656 -13413.2227 -4597.5776)">
	<stop  offset="0" style="stop-color:#FAAE42"/>
	<stop  offset="1" style="stop-color:#EF3E31"/>
</linearGradient>
<path class="st0" d="M555.7,0h1384.8c67.4,0,580.2-286.3,643.7-263.8c91.8,33.2,549.1,242,611.6,318.2
	c63.5,76.2-716.2,316.8-701.6,414.4c5.9,36.1,6.8,72.3,6.8,108.4v1350.6c0,43,703.5-55.9,694.7-13.9
	c-19.5,96.7,390.7,260.4,324.3,333.6c-65.4,73.2-197.6,588.5-290.4,617.8C3173,2882.8,1999,2500,1939.5,2500
	c-26.4,0-1387.7,0-1408.2-1c-99.6-4.9-190.4,214.9-273.4,159.2c-81.1-54.7-484.9,230-527.8,142.1c-37.1-75.2,273.9-772,273.9-856
	V555.7c-2-83-313.1-442.6-277-516.8c42-87.9,379.2-405.6,460.2-460.2C270.1-478,424.8,6.8,524.4,2C534.2,0,544.9,0,555.7,0z"/>
<linearGradient id="SVGID_00000093137127557924082910000016312372743022346887_" gradientUnits="userSpaceOnUse" x1="350.6503" y1="1910.7859" x2="307.5212" y2="1666.1898" gradientTransform="matrix(9.7656 0 0 -9.7656 -2542.0312 18190.4688)">
	<stop  offset="0" style="stop-color:#E39F3A"/>
	<stop  offset="1" style="stop-color:#D33929"/>
</linearGradient>
<path style="fill:url(#SVGID_00000093137127557924082910000016312372743022346887_);" d="M2109.4,2044.9
	c-8.8-13.7-18.6-27.3-29.3-40c-24.4-29.3-52.7-54.7-84-76.2c-39.1-26.4-85-43-131.8-44.9c-33.2-2-66.4,3.9-97.7,15.6
	c-31.2,10.7-61.5,26.4-90.8,42c-34.2,17.6-68.4,35.2-104.5,49.8c-43,17.6-87.9,31.2-133.8,41c-57.6,10.7-116.2,14.6-173.8,13.7
	c-104.5-2-209-17.6-308.6-46.9c-87.9-26.4-171.9-62.5-251-108.4c-69.3-40-133.8-85.9-194.3-137.7c-49.8-43-95.7-88.9-138.7-137.7
	c-29.3-34.2-57.6-70.3-84-107.4c-10.7-14.6-20.5-30.3-29.3-45.9L0,1183.6V553.7C0,248-1057.5-426-751.9-426L510.9-535l900.3,906.1
	c824.2,560.5,557.6,1178.7,557.6,1178.7S2203.1,1813.5,2109.4,2044.9z"/>
<path class="st2" d="M1413.1,371.1c824.2,560.5,557.6,1178.7,557.6,1178.7s234.4,264.6,139.6,496.1c0,0-96.7-162.1-258.8-162.1
	c-156.2,0-248,162.1-562.5,162.1c-700.2,0-1031.2-585-1031.2-585C888.7,1876,1319.3,1582,1319.3,1582
	c-284.2-165-888.7-954.1-888.7-954.1c526.4,448.2,753.9,566.4,753.9,566.4C1048.8,1082,668,533.2,668,533.2
	c304.7,308.6,910.2,739.3,910.2,739.3C1750,795.9,1413.1,371.1,1413.1,371.1z"/>
</svg>
